<?xml version="1.0" encoding="UTF-8" standalone="no"?>
<!-- Created with Inkscape (http://www.inkscape.org/) -->

<svg
   xmlns:dc="http://purl.org/dc/elements/1.1/"
   xmlns:cc="http://creativecommons.org/ns#"
   xmlns:rdf="http://www.w3.org/1999/02/22-rdf-syntax-ns#"
   xmlns:svg="http://www.w3.org/2000/svg"
   xmlns="http://www.w3.org/2000/svg"
   xmlns:sodipodi="http://sodipodi.sourceforge.net/DTD/sodipodi-0.dtd"
   xmlns:inkscape="http://www.inkscape.org/namespaces/inkscape"
   version="1.0"
   width="565"
   height="580"
   viewBox="0 0 565 580"
   id="svg5408"
   xml:space="preserve"
   inkscape:version="0.47 r22583"
   sodipodi:docname="Aleph0.svg"><metadata
   id="metadata9"><rdf:RDF><cc:Work
       rdf:about=""><dc:format>image/svg+xml</dc:format><dc:type
         rdf:resource="http://purl.org/dc/dcmitype/StillImage" /></cc:Work></rdf:RDF></metadata><sodipodi:namedview
   pagecolor="#ffffff"
   bordercolor="#666666"
   borderopacity="1"
   objecttolerance="10"
   gridtolerance="10"
   guidetolerance="10"
   inkscape:pageopacity="0"
   inkscape:pageshadow="2"
   inkscape:window-width="1315"
   inkscape:window-height="859"
   id="namedview7"
   showgrid="false"
   inkscape:zoom="0.36914799"
   inkscape:cx="-136.22301"
   inkscape:cy="319.655"
   inkscape:window-x="98"
   inkscape:window-y="62"
   inkscape:window-maximized="0"
   inkscape:current-layer="no" /><defs
   id="defs5418"><inkscape:perspective
     sodipodi:type="inkscape:persp3d"
     inkscape:vp_x="0 : 319.655 : 1"
     inkscape:vp_y="0 : 1000 : 0"
     inkscape:vp_z="686.51898 : 319.655 : 1"
     inkscape:persp3d-origin="343.25949 : 213.10333 : 1"
     id="perspective11" /></defs>
	
		<g
   transform="matrix(0.972901,0,0,0.972901,10.14778,11.83907)"
   id="no">
			<path
   d="M 339.174,400.225 C 341.234,402.392 354.352,420.172 358.559,426.5 C 363.805,434.391 369.307,446.017 371.375,453.583 C 373.436,461.122 372.992,480.946 370.525,491.5 C 368.673,499.422 363.757,509.814 360.349,513.017 C 357.515,515.679 351.048,516.663 348.576,514.808 C 347.367,513.903 346.467,511.188 345.812,506.482 C 344.005,493.498 341.61,485.542 335.88,473.501 C 331.241,463.754 320.892,447.276 317.98,445.001 L 114.868,211.002 C 104.142,198.627 100.609,195 99.279,195 C 96.999,195 94.158,199.815 90.584,209.737 C 78.873,242.253 70.668,280.728 70.453,326.5 C 70.366,345.174 71.07,350.378 75.12,361 C 77.224,366.521 89.446,385.748 94.609,391.661 C 96.026,393.283 109.995,410.849 111.44,412.5 C 116.535,418.318 126.512,433.626 130.016,441 C 135.47,452.478 137.87,458.759 137.87,471.737 C 137.87,480.803 134.658,488.713 133.76,490.574 C 128.698,501.069 118.983,508.178 103.37,512.814 C 91.47,516.348 82.105,517 43.251,517 C 43.251,517 8.255,517.184 6.91,516.982 C 5.652,516.794 4.012,515.879 2.696,514.592 C 0.698,512.637 -0.895,507.998 2.222,504.374 C 4.478,501.751 5.113,501.604 17.472,500.836 C 24.565,500.396 33.888,499.157 38.188,498.085 C 71.702,489.73 73.634,469.887 46.184,415.999 C 37.026,398.02 34.362,392.417 28.355,378.499 C 23.132,366.397 20.869,353.718 20.868,336.566 C 20.868,320.628 22.13,308.205 24.988,295.999 C 33.927,257.827 54.122,216.062 63.09,201.267 C 65.168,197.839 66.868,194.828 66.868,194.574 C 66.868,194.321 69.568,189.938 72.868,184.835 C 76.168,179.732 78.868,174.728 78.868,173.713 C 78.868,171.893 77.16,167.972 75.942,167 C 75.598,166.725 57.178,144.154 55.724,142.503 C 26.979,109.854 9.47,84.958 2.946,67.461 C -2.027,54.122 -0.5,27.034 5.99,13.456 C 10.31,4.417 13.58,0.97 18.44,0.324 C 21.452,-0.075 22.947,0.22 24.189,1.462 C 25.99,3.264 26.093,3.639 27.891,15 C 29.544,25.446 32.343,34.146 37.058,43.5 C 42.447,54.189 52.893,69.643 59.18,76.225 C 59.85,76.926 62.864,80.425 65.879,84 L 251.876,297.989 C 267.185,316.073 267.535,316.385 269.608,313.75 C 270.725,312.33 271.222,309.716 273.837,291.5 C 276.242,274.745 296.482,148.608 297.255,142.631 C 298.151,135.714 298.343,130.65 297.785,128.705 C 297.268,126.905 292.673,121.301 286.607,115.074 C 267.951,95.924 259.717,85.258 253.963,72.796 C 249.891,63.974 248.869,58.696 248.869,46.498 C 248.869,25.659 252.273,12.829 259.935,4.79 C 263.547,1.001 265.176,0 267.73,0 C 271.534,0 275.45,3.432 276.473,7.664 C 277.945,13.748 283.893,24.399 304.866,58.5 C 310.189,67.154 318.384,79.365 321.222,82.872 C 324.077,86.399 338.923,101.238 346.388,108.026 C 349.699,111.037 353.96,115.524 355.863,118 C 357.763,120.475 359.564,122.725 359.867,123 C 360.17,123.274 361.295,124.85 362.369,126.5 C 369.594,137.603 372.053,145.626 372.635,159.998 C 373.637,184.681 366.612,205.55 355.795,210.03 C 353.359,211.04 352.463,210.964 350.332,209.566 C 347.322,207.594 346.4,205.415 345.445,198 C 343.879,185.853 337.243,170.762 328.62,159.732 C 322.097,151.39 319.825,152.758 318.028,166.11 C 315.688,183.495 293.584,315.479 293.118,328.179 C 292.601,342.292 292.967,345.912 295.136,348.179 L 339.174,400.225 z "
   id="path5413" />
			<path
   d="m 407.82107,471.94683 c 0,-27.0625 3.8305,-48.707 15.4915,-64.926 11.6615,-16.211 26.9505,-24.324 45.8505,-24.324 18.9005,0 34.181,8.1565 45.8425,24.455 11.661,16.299 15.5005,37.8995 15.5005,64.795 0,26.729 -3.814,48.286 -15.426,64.672 -11.612,16.386 -26.9175,24.5785 -45.917,24.5785 -18.9,0 -34.189,-8.1495 -45.8505,-24.448 -11.6605,-16.299 -15.4915,-37.8995 -15.4915,-64.8025 z m 22.383,0 c 0,35.968 3.437,58.832 10.3115,68.5795 6.8745,9.7545 16.448,14.628 28.7225,14.628 14.4445,0 24.5315,-5.825 30.272,-17.4825 5.7395,-11.6575 8.613,-33.5635 8.613,-65.725 0,-36.0545 -3.445,-58.9335 -10.3195,-68.6445 -6.8745,-9.7035 -16.3995,-14.5625 -28.5655,-14.5625 -12.175,0 -21.7245,4.8375 -28.648,14.497 -6.9235,9.6675 -10.386,32.568 -10.386,68.71 z"
   id="path5415" />
		</g>
	</svg>