<?xml version="1.0" encoding="UTF-8" standalone="no"?>
<!-- Created with Inkscape (http://www.inkscape.org/) -->

<svg
   xmlns:dc="http://purl.org/dc/elements/1.1/"
   xmlns:cc="http://creativecommons.org/ns#"
   xmlns:rdf="http://www.w3.org/1999/02/22-rdf-syntax-ns#"
   xmlns:svg="http://www.w3.org/2000/svg"
   xmlns="http://www.w3.org/2000/svg"
   xmlns:sodipodi="http://sodipodi.sourceforge.net/DTD/sodipodi-0.dtd"
   xmlns:inkscape="http://www.inkscape.org/namespaces/inkscape"
   version="1.0"
   width="565"
   height="580"
   viewBox="0 0 565 580"
   id="svg5408"
   xml:space="preserve"
   inkscape:version="0.91 r13725"
   sodipodi:docname="lambda-aleph.svg"><metadata
     id="metadata9"><rdf:RDF><cc:Work
         rdf:about=""><dc:format>image/svg+xml</dc:format><dc:type
           rdf:resource="http://purl.org/dc/dcmitype/StillImage" /><dc:title></dc:title></cc:Work></rdf:RDF></metadata><sodipodi:namedview
     pagecolor="#ffffff"
     bordercolor="#666666"
     borderopacity="1"
     objecttolerance="10"
     gridtolerance="10"
     guidetolerance="10"
     inkscape:pageopacity="0"
     inkscape:pageshadow="2"
     inkscape:window-width="2036"
     inkscape:window-height="2049"
     id="namedview7"
     showgrid="false"
     inkscape:zoom="2"
     inkscape:cx="211.52088"
     inkscape:cy="302.89209"
     inkscape:window-x="2872"
     inkscape:window-y="105"
     inkscape:window-maximized="0"
     inkscape:current-layer="svg5408" /><defs
     id="defs5418"><inkscape:perspective
       sodipodi:type="inkscape:persp3d"
       inkscape:vp_x="0 : 319.655 : 1"
       inkscape:vp_y="0 : 1000 : 0"
       inkscape:vp_z="686.51898 : 319.655 : 1"
       inkscape:persp3d-origin="343.25949 : 213.10333 : 1"
       id="perspective11" /></defs><g
     transform="matrix(0.972901,0,0,0.972901,10.14778,11.83907)"
     id="no"
     inkscape:export-xdpi="865.38464"
     inkscape:export-ydpi="865.38464"><path
       d="M 30.029297 11.994141 C 29.461974 12.002942 28.820485 12.05725 28.087891 12.154297 C 23.359592 12.782791 20.177542 16.135635 15.974609 24.929688 C 9.6604919 38.139712 8.1754327 64.49513 13.013672 77.472656 C 19.360878 94.495505 36.395289 118.71622 64.361328 150.48047 C 65.775926 152.08673 83.696572 174.04691 84.03125 174.31445 C 85.216243 175.26011 86.878906 179.07307 86.878906 180.84375 C 86.878906 181.83124 84.251589 186.7013 81.041016 191.66602 C 77.830442 196.63073 75.203125 200.89473 75.203125 201.14062 C 75.203125 201.38774 73.549032 204.31724 71.527344 207.65234 C 62.802368 222.04641 43.155746 262.67883 34.458984 299.81641 C 31.678433 311.69164 30.451172 323.77906 30.451172 339.28516 C 30.452145 355.97235 32.652913 368.30798 37.734375 380.08203 C 43.578591 393.62287 46.170251 399.07267 55.080078 416.56445 C 81.786211 468.99214 79.906585 488.29719 47.300781 496.42578 C 43.117307 497.46873 34.047271 498.67544 27.146484 499.10352 C 15.122401 499.8507 14.503458 499.993 12.308594 502.54492 C 9.2760563 506.07072 10.827628 510.58431 12.771484 512.48633 C 14.051822 513.73845 15.647184 514.62764 16.871094 514.81055 C 18.179646 515.00707 52.226562 514.82813 52.226562 514.82812 C 90.027658 514.82812 99.1392 514.19409 110.7168 510.75586 C 125.9067 506.24549 135.35838 499.32974 140.2832 489.11914 C 141.15687 487.30857 144.28125 479.61329 144.28125 470.79297 C 144.28125 458.16666 141.94683 452.05563 136.64062 440.88867 C 133.23183 433.7145 123.52529 418.82049 118.56836 413.16016 C 117.16252 411.5539 103.57196 394.46476 102.19336 392.88672 C 97.170247 387.13396 85.279406 368.42803 83.232422 363.05664 C 79.292173 352.72249 78.606764 347.66014 78.691406 329.49219 C 78.90058 284.96056 86.8837 247.52743 98.277344 215.89258 C 101.75449 206.23945 104.51811 201.55469 106.73633 201.55469 C 108.03029 201.55469 111.46701 205.0834 121.90234 217.12305 L 319.51172 444.78125 C 322.34481 446.9946 332.41249 463.02495 336.92578 472.50781 C 342.5005 484.22251 344.82986 491.96356 346.58789 504.5957 C 347.22514 509.17418 348.10111 511.81484 349.27734 512.69531 C 351.68236 514.50004 357.97522 513.54299 360.73242 510.95312 C 364.04807 507.83717 368.831 497.72685 370.63281 490.01953 C 373.03296 479.75153 373.46413 460.46556 371.45898 453.13086 C 369.44703 445.76989 364.09407 434.45841 358.99023 426.78125 C 354.89724 420.62473 342.13504 403.32703 340.13086 401.21875 L 297.28516 350.58203 C 296.94555 350.22709 296.66996 349.79937 296.42188 349.32422 C 296.407 349.30717 296.3917 349.29043 296.37695 349.27344 C 296.36664 349.26155 296.40693 349.30137 296.41211 349.30469 C 296.40943 349.29951 296.40697 349.29426 296.4043 349.28906 C 296.21875 349.12521 296.1913 349.08721 296.17188 348.9707 C 296.15459 348.95148 296.15652 348.95736 296.13477 348.93359 C 296.14591 348.94001 296.15679 348.94689 296.16797 348.95312 C 296.16235 348.92324 296.16203 348.91504 296.14648 348.86133 C 296.13307 348.8597 296.11909 348.85475 296.10547 348.85156 C 296.1181 348.88699 296.12365 348.90496 296.13281 348.93164 C 296.11886 348.9236 296.10581 348.9142 296.0918 348.90625 C 296.09184 349.09893 296.09186 349.2917 296.0918 349.48438 C 296.17641 350.02231 296.25126 350.56261 296.22656 351.10352 C 296.20646 351.54305 296.55202 352.32207 296.12305 352.41992 C 295.77331 352.4997 295.42074 352.56507 295.06836 352.62891 C 295.19771 353.72155 295.3652 355.12383 294.72266 355.7207 C 294.38286 356.03635 294.00847 356.3071 293.62305 356.55859 C 293.61763 356.63618 293.60869 356.71341 293.60352 356.79102 C 293.58252 357.01483 293.54204 357.27152 293.55664 357.50391 C 293.59214 358.06737 293.76986 359.07622 293.55273 359.47852 C 290.06485 365.9399 290.85353 363.75653 283.40039 361.75195 C 283.14579 361.21029 282.85545 360.68407 282.63672 360.12695 C 282.58131 359.98583 282.51794 359.67811 282.45508 359.41797 C 281.68691 359.15517 280.8812 358.69892 279.72266 358.18945 C 279.2613 357.69714 278.74817 357.25 278.33984 356.71289 C 277.6742 355.83731 277.16221 354.6509 276.79883 353.62109 C 276.61422 353.09793 276.45776 352.56527 276.31445 352.0293 C 274.55129 351.86369 272.76318 351.46176 271.00781 351.37109 C 270.75085 350.81897 270.43639 350.2907 270.23828 349.71484 C 270.0125 349.05856 269.91563 348.37788 269.84961 347.69336 C 269.11617 347.57483 268.423 347.10059 267.80664 346.67383 C 266.76255 345.9509 266.02193 344.8297 265.56836 343.66992 C 265.42793 343.31085 265.32386 342.93915 265.2168 342.56836 C 264.73115 342.73119 264.23576 342.8367 263.75195 342.73438 C 262.11649 342.38812 260.70627 341.35405 259.18359 340.66406 C 258.755 339.85026 258.23342 339.07924 257.89844 338.22266 C 257.60069 337.46127 257.52973 335.97678 257.5 335.14648 C 257.48832 334.82038 257.49359 334.4943 257.48828 334.16797 C 256.50701 333.80244 255.4699 333.53167 254.63672 332.91016 C 253.89473 332.35666 253.46895 331.46249 253.01758 330.6543 C 252.76596 330.20377 252.68079 329.67762 252.55273 329.17773 C 252.46633 328.84054 252.42427 328.49301 252.375 328.14844 C 252.33259 327.85185 252.32173 327.6946 252.29688 327.48047 C 251.45191 327.31589 250.63156 327.05299 249.88086 326.66797 C 248.95294 326.19204 248.63285 325.0274 248.21875 324.03125 C 247.86076 324.05071 247.64667 323.59535 247.23828 322.60742 C 247.22993 322.67188 247.19165 322.57204 247.14844 322.42969 C 247.02881 322.22381 246.91519 322.01554 246.80664 321.80664 C 246.57844 321.4916 246.36146 321.16794 246.14844 320.8418 C 246.08174 320.70124 246.13589 320.81005 245.99023 320.56055 C 245.76827 320.18036 245.55433 319.79554 245.3418 319.41016 C 244.77053 318.95564 244.30562 318.41728 243.70703 317.78711 C 243.40332 317.31638 243.06404 316.86632 242.79492 316.375 C 242.46128 315.76589 242.18725 315.12622 241.95117 314.46875 C 241.67946 314.16134 241.42721 313.8361 241.16602 313.51953 C 241.05767 313.32441 240.95042 313.12856 240.8418 312.93359 C 240.85643 312.96204 240.87068 312.99082 240.88477 313.01953 C 240.93001 313.11177 240.68778 312.65855 240.73828 312.74805 C 240.77308 312.80972 240.80733 312.87174 240.8418 312.93359 C 240.72231 312.70133 240.58654 312.47535 240.48633 312.23438 C 240.30326 311.79395 240.17611 311.37632 240.08203 310.95117 C 239.84842 310.76778 239.68519 310.59031 239.02539 309.87305 C 237.69412 308.42581 237.38697 307.54359 237.71875 307.01367 C 237.65743 306.92524 237.60325 306.83245 237.54492 306.74219 C 236.46499 306.528 236.46818 305.87555 236.47461 304.11719 C 236.47501 304.08591 236.4742 304.05471 236.47461 304.02344 C 236.40607 303.75302 236.33844 303.48247 236.2832 303.20898 C 234.83505 303.08552 233.69164 302.43128 232.67188 301.4375 C 232.3977 301.17032 232.16948 300.86089 231.91797 300.57227 C 231.10158 299.29031 230.9572 299.22847 230.45117 297.68164 C 230.29943 297.21779 230.19942 296.73563 230.12109 296.25391 C 230.01831 295.62183 229.94276 294.98526 229.91016 294.3457 C 229.88307 293.81472 229.89626 293.31781 229.92773 292.82422 C 229.51775 292.31056 229.22811 291.75865 228.82812 291.08203 C 228.70127 290.77049 228.56486 290.46363 228.44727 290.14844 C 228.12329 289.28003 227.86847 288.38953 227.61523 287.49805 C 227.45099 287.25784 227.29224 287.00306 227.14258 286.73633 C 226.53602 286.8733 225.89236 286.90666 224.90039 286.78516 C 223.26082 286.58433 221.82436 285.83099 220.63867 284.70312 C 220.09817 284.18909 219.66899 283.56093 219.27148 282.92969 C 218.96969 282.45045 218.79405 281.9039 218.55469 281.39062 C 218.41771 280.97289 218.26997 280.55758 218.14258 280.13672 C 217.88155 279.27437 217.63026 278.29543 217.43555 277.41602 C 217.30651 276.8332 217.1736 276.25069 217.07422 275.66211 C 216.59957 275.54023 216.19584 275.12495 215.79883 274.81641 C 215.03962 274.22639 214.35826 273.35284 213.90625 272.50195 C 213.65865 272.03585 213.48004 271.53586 213.26758 271.05273 C 212.95346 269.95974 212.85209 269.61956 212.67188 268.68359 C 211.88269 267.44551 211.28496 266.09166 210.77344 264.71094 C 210.66701 264.42368 210.5715 264.13245 210.47461 263.8418 C 210.0118 263.58064 209.64223 263.09578 209.37305 262.28516 C 209.335 262.1706 209.30535 262.05336 209.27148 261.9375 C 209.31809 261.99637 209.32358 261.96308 209.23828 261.77539 C 209.22851 261.75393 209.21682 261.73337 209.20508 261.71289 C 209.22601 261.78662 209.24805 261.86004 209.26953 261.93359 C 209.19359 261.83637 209.02163 261.5073 208.94922 261.19336 C 208.81767 261.17936 208.70454 261.1722 208.56836 261.15625 C 206.9029 260.96121 206.86353 258.32519 205.88672 256.91016 C 205.88031 257.00858 205.87648 257.09713 205.86914 257.19727 C 205.83988 257.05844 205.82603 256.9169 205.80078 256.77734 C 205.78254 256.75383 205.7689 256.72384 205.75 256.70117 C 205.44285 256.33278 205.57917 256.8055 205.76562 257.33203 C 205.82087 257.42981 205.84972 257.49137 205.94922 257.65625 C 206.00638 257.75097 205.83685 257.46484 205.78125 257.36914 C 205.77383 257.35642 205.77889 257.36502 205.77344 257.35547 C 206.05746 258.15121 206.47505 259.08403 205.9043 257.75977 C 205.8476 257.60194 205.78824 257.44588 205.73438 257.28711 C 205.73104 257.27728 205.74616 257.3077 205.77344 257.35547 C 205.77044 257.34706 205.76859 257.3404 205.76562 257.33203 C 205.60338 257.04467 205.51752 256.86421 205.16211 256.14844 C 204.99126 255.54479 204.77349 254.95111 204.65039 254.33594 C 204.58734 254.02086 204.55691 253.62792 204.53906 253.22656 C 203.53472 252.94131 202.8569 252.60325 202.07031 251.97656 C 202.00114 251.92145 201.94044 251.85629 201.875 251.79688 C 201.11734 252.21251 200.63241 251.83663 200.22852 250.26953 C 200.19366 250.22029 200.15044 250.18226 200.11719 250.13086 C 199.69669 249.48086 199.23146 248.78327 199.16797 248.01172 C 199.09644 247.14255 199.2693 246.27979 199.43945 245.41602 C 199.42846 245.31574 199.41211 245.21619 199.41211 245.11523 C 199.41211 245.08011 199.41585 245.05226 199.41602 245.01758 C 199.33044 245.41391 199.2392 245.80905 199.15234 246.20508 C 199.14294 246.35703 199.13356 246.50969 199.13281 246.66406 C 199.13279 246.66906 199.13086 246.65469 199.13086 246.65039 C 199.12486 246.55979 199.11868 246.46957 199.11328 246.37891 C 199.12613 246.32093 199.13962 246.26308 199.15234 246.20508 C 199.1818 245.72887 199.25893 245.26379 199.42188 244.81445 C 199.45651 242.63859 199.90503 241.3376 201.73047 240.23828 L 74.242188 93.5625 C 71.308891 90.084379 68.376453 86.68005 67.724609 85.998047 C 61.607981 79.594412 51.444135 64.559495 46.201172 54.160156 C 41.613944 45.05964 38.891408 36.594564 37.283203 26.431641 C 35.533927 15.378512 35.433835 15.014886 33.681641 13.261719 C 32.775383 12.355461 31.731266 11.967735 30.029297 11.994141 z M 199.42188 244.81445 C 199.42076 244.88469 199.41636 244.94547 199.41602 245.01758 C 199.44372 244.88926 199.47185 244.76102 199.5 244.63281 C 199.47456 244.69346 199.44401 244.75325 199.42188 244.81445 z M 208.94922 261.19336 C 208.96739 261.19529 208.98387 261.19537 209.00195 261.19727 C 208.97194 261.11938 208.94292 261.04114 208.91406 260.96289 C 208.91543 261.03564 208.93094 261.11412 208.94922 261.19336 z M 209.00195 261.19727 C 209.0602 261.34841 209.1092 261.50262 209.17188 261.65234 C 209.18284 261.67253 209.19362 261.69291 209.20508 261.71289 C 209.17374 261.60251 209.13995 261.49282 209.10742 261.38281 C 209.09471 261.32297 209.08301 261.26297 209.07031 261.20312 C 209.04699 261.20083 209.02543 261.19973 209.00195 261.19727 z M 247.14844 322.42969 C 247.16875 322.46464 247.18631 322.5008 247.20703 322.53516 C 247.17462 322.45657 247.15639 322.41955 247.12109 322.33398 C 247.13143 322.36929 247.1383 322.39631 247.14844 322.42969 z M 247.20703 322.53516 C 247.2187 322.56344 247.22696 322.58003 247.23828 322.60742 C 247.2389 322.60265 247.23996 322.60244 247.24023 322.5957 C 247.22854 322.57675 247.2186 322.55433 247.20703 322.53516 z M 296.16797 348.95312 C 296.16904 348.95886 296.17103 348.96564 296.17188 348.9707 C 296.23955 349.0461 296.28102 349.08776 296.31445 349.11914 C 296.29592 349.08041 296.27394 349.04742 296.25586 349.00781 C 296.22557 348.99108 296.19802 348.9702 296.16797 348.95312 z M 204.36328 244.87695 C 204.36085 244.88312 204.34592 244.93815 204.34375 244.94336 C 204.30514 245.42339 204.29226 245.76772 204.3457 246.11133 C 204.41397 246.06627 204.48256 246.02382 204.55078 245.97852 C 204.5926 245.68035 204.64087 245.37203 204.66992 245.09766 C 204.57117 245.02017 204.46615 244.94963 204.36328 244.87695 z M 204.55078 245.97852 C 204.52041 246.1951 204.49474 246.40125 204.45703 246.63086 C 204.53308 246.88913 204.64228 247.2024 204.79492 247.62695 C 204.80749 247.66189 204.82787 247.69325 204.84375 247.72656 C 204.85536 247.60804 204.86758 247.48964 204.87891 247.37109 C 204.90526 247.12841 204.93272 246.8855 204.95703 246.64258 C 204.85615 246.49448 204.95234 246.08675 205.05859 245.65234 C 204.89027 245.76497 204.71916 245.8667 204.55078 245.97852 z M 204.95703 246.64258 C 204.96788 246.65851 204.98539 246.66476 205 246.67578 C 205.01695 246.58462 205.03723 246.49474 205.05664 246.4043 C 205.09526 246.1473 205.15337 245.6978 205.17969 245.57227 C 205.14057 245.59758 205.10124 245.62252 205.0625 245.64844 C 205.06152 245.65803 205.06128 245.66819 205.06055 245.67383 C 205.01838 245.99567 204.98936 246.31956 204.95703 246.64258 z M 204.45703 246.63086 C 204.39607 246.42382 204.36993 246.2671 204.3457 246.11133 C 204.12621 246.2562 203.90598 246.39618 203.68555 246.53711 C 203.69312 246.60007 203.70227 246.65981 203.71094 246.72266 C 203.85457 247.10627 203.99776 247.50409 204.22656 247.84766 C 204.31104 247.42985 204.39453 247.01145 204.45703 246.63086 z M 205.20508 245.55664 C 205.19922 245.56056 205.1934 245.56451 205.1875 245.56836 C 205.1902 245.57023 205.19457 245.55159 205.19336 245.59375 C 205.18885 245.74977 205.16004 245.90281 205.13086 246.05664 C 205.17046 245.89423 205.20936 245.75684 205.25195 245.59961 C 205.23653 245.58507 205.22059 245.57107 205.20508 245.55664 z M 205.3418 245.6875 C 205.27648 245.99443 205.21178 246.30908 205.16406 246.54688 C 205.16278 246.55318 205.16496 246.56 205.16406 246.56641 C 205.18806 246.6287 205.18706 246.62856 205.20703 246.68164 C 205.55808 246.56993 205.79457 246.49924 206.04297 246.42383 C 205.81994 246.16544 205.58453 245.92256 205.3418 245.6875 z M 202.22266 247.25977 C 202.22745 247.27212 202.25936 247.38021 202.25195 247.34961 C 202.2459 247.3246 202.23688 247.30032 202.23047 247.27539 L 202.22266 247.25977 z M 201.58984 247.27344 C 201.58743 247.39317 201.58099 247.51133 201.58984 247.63086 C 201.59984 247.63867 201.597 247.63022 201.60938 247.64062 C 201.61526 247.64565 201.62456 247.65807 201.63086 247.66406 C 201.67953 247.68188 201.71834 247.69752 201.77148 247.7168 C 201.70766 247.56973 201.6486 247.42155 201.58984 247.27344 z M 202.98828 248.15625 C 203.00508 248.17763 203.03397 248.20362 203.06445 248.23438 C 203.05065 248.21689 203.03725 248.19911 203.02344 248.18164 C 203.01186 248.17296 202.99983 248.16496 202.98828 248.15625 z M 300.4375 293.06836 C 300.44308 293.07571 300.44918 293.0818 300.45508 293.08984 C 300.45649 293.08711 300.45938 293.08473 300.46094 293.08203 L 300.46094 293.08008 C 300.45251 293.07467 300.44682 293.07423 300.4375 293.06836 z M 300.46094 293.08203 C 300.45769 293.08727 300.45998 293.08707 300.45703 293.0918 C 300.45912 293.09465 300.46076 293.09667 300.46289 293.09961 C 300.48627 293.11337 300.50973 293.12724 300.5332 293.14062 C 300.51742 293.12859 300.50218 293.10616 300.48633 293.0957 C 300.47831 293.09041 300.47018 293.08797 300.46094 293.08203 z M 300.50391 293.07812 C 300.52997 293.11105 300.55937 293.14132 300.58594 293.17383 C 300.59049 293.17643 300.59505 293.17905 300.59961 293.18164 C 300.60194 293.16652 300.60314 293.15379 300.60547 293.13867 C 300.55773 293.10662 300.47984 293.04792 300.50391 293.07812 z M 282.85742 301.43359 C 282.85659 301.43475 282.8563 301.43635 282.85547 301.4375 C 282.86115 301.44063 282.8714 301.44616 282.87695 301.44922 C 282.8709 301.44352 282.86358 301.43918 282.85742 301.43359 z M 274.72852 307.7832 C 274.72764 307.78874 274.72744 307.7933 274.72656 307.79883 C 274.73909 307.82901 274.74965 307.86024 274.76172 307.89062 C 274.76505 307.8904 274.76816 307.89095 274.77148 307.89062 C 274.75687 307.85504 274.73968 307.81094 274.72852 307.7832 z M 241.64648 313.59375 C 241.5948 313.47688 241.65855 313.6484 241.74414 313.8418 C 241.73211 313.80387 241.71883 313.76654 241.70703 313.72852 C 241.68749 313.68387 241.66602 313.63793 241.64648 313.59375 z M 243.4707 316.41992 C 243.48992 316.4556 243.51285 316.48566 243.5332 316.51953 C 243.51224 316.48636 243.49158 316.45315 243.4707 316.41992 z M 244.23633 317.63867 C 244.23974 317.64536 244.24307 317.65028 244.24609 317.65625 C 244.27629 317.69955 244.36192 317.83107 244.33594 317.78516 C 244.32226 317.76097 244.26503 317.68236 244.23633 317.63867 z M 246.90625 321.9375 C 246.91999 321.95833 246.91067 321.94986 246.92773 321.97461 C 246.96563 322.02958 246.99036 322.05756 247.05078 322.13281 L 247.04688 322.12305 C 246.99818 322.06237 246.95299 321.99959 246.90625 321.9375 z M 270.29297 347.72266 C 270.27368 347.94095 270.271 348.16465 270.2832 348.0332 C 270.29279 347.92979 270.29931 347.82633 270.30664 347.72266 C 270.30471 347.72277 270.30271 347.72254 270.30078 347.72266 C 270.29817 347.72281 270.29558 347.72251 270.29297 347.72266 z M 296.08984 350.70898 C 296.09043 350.74479 296.08881 350.78061 296.08984 350.81641 C 296.09014 350.82691 296.11929 350.84038 296.11719 350.83008 C 296.10876 350.78954 296.09851 350.74947 296.08984 350.70898 z "
       transform="matrix(1.0278538,0,0,1.0278538,-10.430434,-12.168833)"
       id="path5413" /><path
       d="M 520.75391 512.93945 C 520.75086 512.95568 520.74716 512.98217 520.74414 512.99805 C 520.79574 513.04575 520.85542 513.10274 520.9082 513.15234 C 520.9122 513.14502 520.91798 513.14028 520.92188 513.13281 C 521.02103 512.94288 520.94338 512.89406 520.75391 512.93945 z "
       transform="matrix(1.0278538,0,0,1.0278538,-10.430434,-12.168833)"
       id="path5415" /><path
       style="fill:#000000;fill-rule:evenodd;stroke:#000000;stroke-width:1px;stroke-linecap:butt;stroke-linejoin:miter;stroke-opacity:1"
       d="M 124.45117 152.55469 L 200.64062 283.19141 L 275.41797 379.00586 L 325.97656 385.36914 L 124.45117 152.55469 z "
       transform="matrix(1.0278538,0,0,1.0278538,-10.430434,-12.168833)"
       id="path3620" /><rect
       style="fill:none;stroke:#ffffff;stroke-width:1.02785385"
       id="rect3695"
       width="406.00226"
       height="534.48401"
       x="-8.3747272"
       y="-3.4320738" /></g></svg>